<svg xmlns="http://www.w3.org/2000/svg" shape-rendering="geometricPrecision" text-rendering="geometricPrecision" image-rendering="optimizeQuality" fill-rule="evenodd" clip-rule="evenodd" viewBox="0 0 512 467.039"><path fill="#313A58" d="M444.112 41.117v83.422l-59.517-45.38V41.117z"/><path fill="#F8EFE0" d="M47.967 466.995V245.45c-9.75 3.748-18.876 3.83-26.459 1.246-5.914-1.998-10.913-5.579-14.58-10.204-3.667-4.625-6.001-10.247-6.711-16.46-1.078-9.625 1.793-20.495 10.004-30.704.417-.499.872-.997 1.414-1.414L255.137 5.393c-1.484 1.11 87.922 60.542 243.752 181.687.373.292.709.579 1.039.958 11.044 11.873 13.79 25.04 11.125 36.159a33.725 33.725 0 01-7.582 14.505 32.845 32.845 0 01-13.498 9.121c-8.335 3-18.247 2.919-28.289-1.831V466.47h-23.332l-367.052.569-23.333-.044z"/><path fill="#313A58" d="M47.967 466.994V245.449c-9.75 3.749-18.874 3.832-26.457 1.249-5.916-2-10.915-5.582-14.582-10.207-3.666-4.625-6-10.248-6.708-16.457-1.083-9.624 1.791-20.498 9.998-30.706.418-.5.877-.999 1.417-1.417L249.366 2.302c3.083-2.833 7.833-3.126 11.249-.459l238.273 185.235a7.6 7.6 0 011.042.958c11.041 11.874 13.79 25.039 11.125 36.164a33.725 33.725 0 01-7.583 14.5 32.84 32.84 0 01-13.499 9.124c-8.334 2.999-18.249 2.915-28.29-1.834v220.481h-23.332V235.742c0-4.209-163.444-133.407-181.484-147.448-19.125 14.541-185.569 142.698-185.569 148.113v230.63l-23.331-.043z"/><path fill="#313A58" fill-rule="nonzero" d="M256.003 143.559c12.803 0 24.451 5.238 32.88 13.667 8.428 8.428 13.667 20.076 13.667 32.879v49.349h-93.093v-49.349c0-12.803 5.239-24.451 13.668-32.879 8.428-8.429 20.076-13.667 32.878-13.667z"/><path fill="#ABB9BC" d="M256.003 150.985c.748 0 1.496.02 2.233.066h-4.466a40.483 40.483 0 012.233-.066zm3.729.183c19.786 1.892 35.392 18.677 35.392 38.937v.101h-35.392v-39.038zm35.392 46.495v34.365h-35.392v-34.365h35.392zm-42.849 34.365h-35.392v-34.365h35.392v34.365zm-35.392-41.822v-.101c0-20.26 15.611-37.045 35.392-38.937v39.038h-35.392z"/><path fill="#313A58" fill-rule="nonzero" d="M216.883 190.206h35.392v-39.155h7.457v39.155h35.392v7.457h-35.392v34.431h-7.457v-34.431h-35.392z"/><path fill="#D93133" d="M47.967 245.449c-9.75 3.749-18.874 3.832-26.457 1.249-5.916-2-10.915-5.582-14.582-10.207-3.666-4.625-6-10.248-6.708-16.457-1.083-9.624 1.791-20.498 9.998-30.706.418-.5.877-.999 1.417-1.417L249.366 2.302c3.083-2.833 7.833-3.126 11.249-.459l238.273 185.235a7.6 7.6 0 011.042.958c11.041 11.874 13.79 25.039 11.125 36.164a33.725 33.725 0 01-7.583 14.5 32.84 32.84 0 01-13.499 9.124c-8.334 2.999-18.249 2.915-28.29-1.834l-23.332-10.248c0-4.209-163.444-133.407-181.484-147.448-19.125 14.541-185.569 142.698-185.569 148.113l-23.331 9.042z"/><path fill="#313A58" fill-rule="nonzero" d="M163.133 404.575c.25-43.526.494-79.56.739-122.913a6.019 6.019 0 014.787-5.86l-.006-.006c29.609-6.181 68.442.346 87.671 25.893 20.253-24.85 57.598-30.347 87.617-25.964a6.024 6.024 0 015.152 5.961c.012 0 .006 113.319.006 123.419a6.032 6.032 0 01-7.426 5.872c-13.191-2.084-31.592-.357-44.062 4.097-10.046 3.585-19.914 8.944-29.645 15.519 13.316-4.181 26.62-5.907 39.923-5.824 15.394.101 36.291 2.608 51.524 6.538 0-45.663-.012-83.859-.012-129.517h6.038a6.033 6.033 0 016.033 6.033v131.375a6.03 6.03 0 01-6.033 6.026 6.149 6.149 0 01-1.941-.315c-16.817-4.818-39.125-8.021-55.656-8.129-16.115-.101-32.241 2.734-48.409 9.88a6.061 6.061 0 01-3.424 1 6.049 6.049 0 01-3.425-1c-16.167-7.146-32.294-9.981-48.414-9.88-16.532.108-38.84 3.311-55.651 8.129a6.186 6.186 0 01-1.947.315 6.03 6.03 0 01-6.033-6.026V307.823a6.033 6.033 0 016.033-6.033h6.033v129.517c15.233-3.93 36.123-6.437 51.517-6.538 14.221-.09 28.442 1.894 42.674 6.717-8.855-7.176-18.729-12.434-29.251-15.864-13.262-4.329-33.224-5.771-47.909-4.508a6.031 6.031 0 01-6.503-5.515c-.03-.345-.03-.69 0-1.024z"/><path fill="#fff" fill-rule="nonzero" d="M250.071 418.837V314.052c-14.155-24.94-48.01-31.056-74.212-27.31l-.679 111.961c13.959-.5 33.242 1.281 46.087 5.467 10.23 3.341 19.919 8.206 28.804 14.667zm86.969-131.815c-26.596-2.507-59.569 2.769-74.91 27.209v105.768c10.231-6.837 20.688-12.44 31.426-16.275 12.249-4.371 30.454-6.438 43.484-5.402v-111.3z"/></svg>